<?xml version="1.0" encoding="UTF-8" standalone="no"?>
<!DOCTYPE svg PUBLIC "-//W3C//DTD SVG 1.1//EN" "http://www.w3.org/Graphics/SVG/1.1/DTD/svg11.dtd">
<svg width="100%" height="100%" viewBox="0 0 250 250" version="1.1" xmlns="http://www.w3.org/2000/svg" xmlns:xlink="http://www.w3.org/1999/xlink" xml:space="preserve" xmlns:serif="http://www.serif.com/" style="fill-rule:evenodd;clip-rule:evenodd;stroke-linecap:round;stroke-miterlimit:1.5;">
    <g transform="matrix(-0.33085,0.42554,1.38468,1.07657,11.1099,61.6889)">
        <rect x="11.651" y="22.306" width="29.849" height="125.196" style="fill:rgb(25,25,25);stroke:black;stroke-width:4.82px;"/>
    </g>
    <g transform="matrix(-0.356762,-0.404063,-1.3148,1.16089,239.997,79.5765)">
        <rect x="11.651" y="22.306" width="29.849" height="125.196" style="fill:rgb(25,25,25);stroke:black;stroke-width:4.82px;"/>
    </g>
    <g transform="matrix(-0.600524,0,0,0.607519,191.962,96.6202)">
        <path d="M249.357,61.812L249.357,185.265C249.357,219.332 221.376,246.991 186.911,246.991L62.02,246.991C27.556,246.991 -0.425,219.332 -0.425,185.265L-0.425,61.812C-0.425,27.744 27.556,0.085 62.02,0.085L186.911,0.085C221.376,0.085 249.357,27.744 249.357,61.812Z" style="fill:rgb(255,156,39);stroke:black;stroke-width:10.35px;stroke-linejoin:round;"/>
    </g>
    <g transform="matrix(-0.539023,0,0,0.51257,174.766,92.1109)">
        <rect x="11.651" y="22.306" width="29.849" height="125.196" style="fill:rgb(38,38,38);stroke:black;stroke-width:11.88px;"/>
    </g>
    <g transform="matrix(-0.0798355,0.996808,0.996808,0.0798355,86.2369,135.003)">
        <path d="M36.498,0C36.498,-20.157 20.157,-36.498 -0,-36.498C-19.197,-36.498 -34.76,-20.935 -34.76,-1.738C-34.76,16.449 -20.017,31.193 -1.829,31.193C15.347,31.193 29.272,17.268 29.272,0.091C29.272,-16.075 16.166,-29.18 -0,-29.18C-15.156,-29.18 -27.442,-16.894 -27.442,-1.738C-27.442,12.408 -15.975,23.875 -1.829,23.875C11.306,23.875 21.954,13.227 21.954,0.091C21.954,-12.033 12.125,-21.862 -0,-21.862C-11.114,-21.862 -20.124,-12.852 -20.124,-1.738C-20.124,8.366 -11.933,16.557 -1.829,16.557C7.264,16.557 14.636,9.185 14.636,0.091C14.636,-7.992 8.083,-14.544 -0,-14.544C-7.073,-14.544 -12.806,-8.811 -12.806,-1.738C-12.806,4.324 -7.892,9.239 -1.829,9.239C3.222,9.239 7.318,5.143 7.318,0.091C7.318,-3.95 4.042,-7.226 -0,-7.226C-3.031,-7.226 -5.488,-4.769 -5.488,-1.738C-5.488,0.283 -3.85,1.921 -1.829,1.921C-0.819,1.921 0,1.102 -0,0.091" style="fill:rgb(0,141,9);stroke:black;stroke-width:3.13px;"/>
    </g>
    <g transform="matrix(-1.04216,0,0,0.615604,255.231,46.7228)">
        <path d="M181,62.002L182.451,78.768C182.451,81.208 178.963,80.776 177.534,80.776L81.647,80.776C80.218,80.776 79.058,78.795 79.058,76.355L79.058,67.513C79.058,65.073 89.301,63.426 90.73,63.426C95.616,13.027 137.359,-35.526 149.217,-32.058C166.145,-27.108 165.353,26.527 172.077,58.525C173.506,58.525 181,59.562 181,62.002Z" style="fill:rgb(24,0,255);stroke:black;stroke-width:3.65px;"/>
    </g>
</svg>
